<?xml version="1.0" ?><!DOCTYPE svg  PUBLIC '-//W3C//DTD SVG 1.1//EN'  'http://www.w3.org/Graphics/SVG/1.1/DTD/svg11.dtd'><svg enable-background="new 0 0 512 512" height="512px" id="Layer_1" version="1.1" viewBox="0 0 512 512" width="512px" xml:space="preserve" xmlns="http://www.w3.org/2000/svg" xmlns:xlink="http://www.w3.org/1999/xlink"><g><g><g><path d="M7.9,256C7.9,119,119,7.9,256,7.9C393,7.9,504.1,119,504.1,256c0,137-111.1,248.1-248.1,248.1     C119,504.1,7.9,393,7.9,256z" fill="#F3F2F2"/></g></g><g><g><path d="M304.7,240.6c0,18-14.6,32.6-32.6,32.6s-32.6-14.6-32.6-32.6s14.6-32.6,32.6-32.6     S304.7,222.6,304.7,240.6z" fill="#F26E21"/></g><g><path d="M96.3,256.2c-3.8,3.4-8.8,4.9-16.7,4.9h-3.3v-41h3.3c7.9,0,12.7,1.4,16.7,5c4.2,3.7,6.7,9.5,6.7,15.4     C103,246.6,100.5,252.5,96.3,256.2L96.3,256.2z M82.1,209.7H64.2v62H82c9.5,0,16.3-2.2,22.3-7.2c7.1-5.9,11.3-14.7,11.3-23.8     C115.6,222.4,101.8,209.7,82.1,209.7" fill="#0B161F"/></g><g><polyline fill="#0B161F" points="121.2,271.7 133.4,271.7 133.4,209.7 121.2,209.7 121.2,271.7    "/></g><g><path d="M163.2,233.5c-7.3-2.7-9.5-4.5-9.5-7.8c0-3.9,3.8-6.9,9.1-6.9c3.6,0,6.6,1.5,9.8,5l6.4-8.3     c-5.2-4.6-11.5-6.9-18.4-6.9c-11,0-19.5,7.6-19.5,17.7c0,8.6,3.9,12.9,15.4,17c4.8,1.7,7.2,2.8,8.4,3.5c2.4,1.6,3.7,3.8,3.7,6.4     c0,5-4,8.7-9.5,8.7c-5.8,0-10.5-2.9-13.3-8.3l-7.9,7.5c5.6,8.2,12.4,11.8,21.6,11.8c12.6,0,21.5-8.4,21.5-20.4     C181.2,243,177.1,238.5,163.2,233.5" fill="#0B161F"/></g><g><path d="M185,240.7c0,18.2,14.4,32.4,33,32.4c5.2,0,9.7-1,15.3-3.6v-14.2c-4.9,4.8-9.2,6.8-14.7,6.8     c-12.3,0-21-8.8-21-21.4c0-11.9,9-21.3,20.4-21.3c5.8,0,10.2,2,15.3,7v-14.2c-5.3-2.7-9.7-3.8-15-3.8     C199.8,208.3,185,222.7,185,240.7" fill="#0B161F"/></g><g><polyline fill="#0B161F" points="332,251.3 315.3,209.7 302,209.7 328.5,273.3 335.1,273.3 362.1,209.7 348.9,209.7 332,251.3         "/></g><g><polyline fill="#0B161F" points="367.6,271.7 402.2,271.7 402.2,261.2 379.8,261.2 379.8,244.4 401.3,244.4 401.3,234 379.8,234      379.8,220.2 402.2,220.2 402.2,209.7 367.6,209.7 367.6,271.7    "/></g><g><path d="M426,238.2h-3.5v-18.8h3.7c7.6,0,11.7,3.2,11.7,9.2C437.9,234.9,433.8,238.2,426,238.2L426,238.2z      M450.4,228c0-11.6-8-18.3-22.1-18.3h-18.1v62h12.2v-24.9h1.6l16.8,24.9h15l-19.7-26.1C445.4,243.7,450.4,237.5,450.4,228" fill="#0B161F"/></g></g><g><g><path d="M153.1,329.3v-34.9l23.8,24.9v-22.7h4.9v34.6L158,306.4v22.9H153.1z"/></g><g><path d="M207.6,301.2h-13.1v7.8h12.7v4.6h-12.7v10.9h13.1v4.6h-18v-32.6h18V301.2z"/></g><g><path d="M223.1,301.2v28h-4.9v-28h-7.5v-4.6h19.9v4.6H223.1z"/></g><g><path d="M238.5,296.6l8.5,21.8l8.9-23.4l8.5,23.4l9-21.8h5.3l-14.6,34.7l-8.4-23.1l-8.8,23.2l-13.9-34.7H238.5z"/></g><g><path d="M279.7,312.8c0-4.6,1.7-8.5,5.1-11.8c3.4-3.3,7.4-4.9,12.1-4.9c4.6,0,8.6,1.7,12,5c3.3,3.3,5,7.3,5,12     c0,4.7-1.7,8.7-5,11.9c-3.4,3.3-7.4,4.9-12.2,4.9c-4.2,0-8-1.5-11.4-4.4C281.6,322.2,279.7,318,279.7,312.8z M284.7,312.8     c0,3.6,1.2,6.6,3.6,8.9c2.4,2.3,5.2,3.5,8.4,3.5c3.4,0,6.3-1.2,8.7-3.5c2.4-2.4,3.5-5.3,3.5-8.7c0-3.5-1.2-6.4-3.5-8.7     c-2.3-2.4-5.2-3.5-8.6-3.5c-3.4,0-6.3,1.2-8.6,3.5C285.9,306.5,284.7,309.4,284.7,312.8z"/></g><g><path d="M331.1,315.3l10.1,13.9h-6l-9.3-13.4H325v13.4H320v-32.6h5.8c4.3,0,7.4,0.8,9.3,2.4c2.1,1.8,3.2,4.2,3.2,7.1     c0,2.3-0.7,4.3-2,6C335,313.8,333.3,314.9,331.1,315.3z M325,311.6h1.6c4.7,0,7-1.8,7-5.3c0-3.3-2.3-5-6.8-5H325V311.6z"/></g><g><path d="M351,309.6l12.7-13h6.6l-14.8,14.8l14.8,17.9h-6.6L352,314.7l-1,1v13.5h-4.9v-32.6h4.9V309.6z"/></g></g><g><g><path d="M503.3,274.6c-46.7,59.1-154.9,161.2-347.5,208.3c30.7,13.6,64.5,21.1,100.2,21.1     C386.7,504.1,493.8,402.9,503.3,274.6z" fill="#F26E21"/></g></g></g></svg>